<?xml version="1.0" encoding="UTF-8" standalone="no"?>
<!-- Created with Inkscape (http://www.inkscape.org/) -->

<svg
   width="344.83942"
   height="459.62708"
   viewBox="0 0 91.238716 121.6098"
   version="1.1"
   id="svg1"
   inkscape:export-filename="MODE Lab COMPLETE circle.png"
   inkscape:export-xdpi="96"
   inkscape:export-ydpi="96"
   inkscape:version="1.4 (86a8ad7, 2024-10-11)"
   sodipodi:docname="MODE Lab.svg"
   xmlns:inkscape="http://www.inkscape.org/namespaces/inkscape"
   xmlns:sodipodi="http://sodipodi.sourceforge.net/DTD/sodipodi-0.dtd"
   xmlns:xlink="http://www.w3.org/1999/xlink"
   xmlns="http://www.w3.org/2000/svg"
   xmlns:svg="http://www.w3.org/2000/svg">
  <sodipodi:namedview
     id="namedview1"
     pagecolor="#ffffff"
     bordercolor="#000000"
     borderopacity="0.25"
     inkscape:showpageshadow="2"
     inkscape:pageopacity="0.0"
     inkscape:pagecheckerboard="0"
     inkscape:deskcolor="#d1d1d1"
     inkscape:document-units="px"
     inkscape:zoom="0.6470027"
     inkscape:cx="622.87221"
     inkscape:cy="594.27882"
     inkscape:window-width="1920"
     inkscape:window-height="1017"
     inkscape:window-x="1072"
     inkscape:window-y="-8"
     inkscape:window-maximized="1"
     inkscape:current-layer="g38"
     showguides="true"
     showgrid="true"
     inkscape:export-bgcolor="#ffffff00">
    <inkscape:grid
       id="grid70"
       units="px"
       originx="-119.74515"
       originy="-99.268215"
       spacingx="0.26458321"
       spacingy="0.26458364"
       empcolor="#0099e5"
       empopacity="0.30196078"
       color="#0099e5"
       opacity="0.14901961"
       empspacing="5"
       enabled="true"
       visible="true" />
    <inkscape:page
       x="0"
       y="0"
       width="91.238716"
       height="121.6098"
       id="page2"
       margin="0"
       bleed="0" />
  </sodipodi:namedview>
  <defs
     id="defs1" />
  <g
     inkscape:label="Layer 1"
     inkscape:groupmode="layer"
     id="layer1"
     transform="translate(-153.50167,-117.30594)"
     style="display:none"
     sodipodi:insensitive="true">
    <g
       id="g13"
       inkscape:label="Text"
       transform="matrix(1.1907307,0,0,1.1907307,-34.72677,-47.927834)"
       style="display:none">
      <g
         id="g11"
         inkscape:label="MODE"
         style="display:none">
        <path
           id="text5"
           style="font-style:normal;font-variant:normal;font-weight:bold;font-stretch:normal;font-size:51.7123px;font-family:Verdana;-inkscape-font-specification:'Verdana, Bold';font-variant-ligatures:normal;font-variant-caps:normal;font-variant-numeric:normal;font-variant-east-asian:normal;text-align:start;letter-spacing:-5.29167px;writing-mode:lr-tb;direction:ltr;text-anchor:start;fill:#ffffff;fill-opacity:1;stroke:none;stroke-width:6;stroke-linejoin:round;stroke-dasharray:none;stroke-opacity:1"
           d="m 149.00658,92.508548 c -6.04925,0.14039 -12.29318,2.536076 -16.11361,7.378516 -0.56556,0.695276 -1.08229,1.430536 -1.54264,2.199606 -0.0268,-2.239606 0.0695,-4.495816 -0.0995,-6.724536 -0.49827,-1.768586 -2.59706,-2.342226 -4.22898,-2.091706 -3.42925,0.0542 -6.87508,-0.14603 -10.29258,0.14828 -1.78054,0.63001 -2.16424,2.657066 -2.92751,4.151846 -1.59838,3.577636 -3.19676,7.155276 -4.79514,10.732906 -2.11128,-4.64279 -4.10812,-9.344306 -6.35743,-13.919912 -1.14832,-1.40965 -3.105844,-1.09249 -4.708984,-1.11328 -3.126901,0.0699 -6.270868,-0.16462 -9.384766,0.17188 -1.629598,0.58002 -2.171607,2.515786 -1.916058,4.078896 0.01265,12.119806 -0.04472,24.242756 0.05082,36.360546 0.375307,1.8443 2.522547,2.55414 4.191796,2.27891 2.73312,-0.0537 5.479126,0.12737 8.202734,-0.13438 1.705138,-0.53887 2.204928,-2.57088 1.988278,-4.1582 0,-3.52539 0,-7.05078 0,-10.57617 0.73974,1.68876 1.40765,3.42503 2.31446,5.02929 1.36535,1.39656 3.44056,0.96456 5.18435,0.96857 1.65794,0.005 3.48655,0.30697 4.9928,-0.54344 1.46099,-1.16804 1.66439,-3.15524 2.52277,-4.71297 0.33391,-1.028 0.3603,-0.55431 0.31883,0.25073 0.009,3.89596 -0.0393,7.79688 0.0711,11.68946 0.44743,1.82877 2.59557,2.45069 4.26016,2.18722 2.87318,-0.0504 5.75877,0.1255 8.62265,-0.13449 1.70446,-0.53911 2.20469,-2.57118 1.98828,-4.1582 0,-1.51172 0,-3.02344 0,-4.53516 2.52371,4.22861 6.73275,7.3766 11.48774,8.64558 4.91019,1.36859 10.20262,1.26038 15.09956,-0.1053 4.56722,-1.37871 8.68696,-4.40513 11.08848,-8.56176 0.0258,2.25067 -0.0666,4.51794 0.10149,6.75774 0.50091,1.76963 2.60056,2.34429 4.23484,2.091 6.29238,-0.11605 12.62619,0.33654 18.88212,-0.52057 5.19047,-0.84821 10.19719,-3.5089 13.3123,-7.82266 0.3939,-0.51682 0.76009,-1.05457 1.10207,-1.60707 0.0276,2.61779 -0.0708,5.25234 0.10148,7.8593 0.49828,1.76869 2.59707,2.34202 4.22899,2.09187 8.65684,-0.022 17.31868,0.0682 25.97226,-0.0684 1.82798,-0.44861 2.45132,-2.59518 2.18711,-4.26016 -0.0629,-2.11024 0.1568,-4.25062 -0.16994,-6.33916 -0.58363,-1.64408 -2.56335,-2.10615 -4.12107,-1.89678 -4.41915,0 -8.83829,0 -13.25743,0 0,-1.33333 0,-2.66666 0,-4 4.69929,-0.0163 9.40378,0.0616 14.09961,-0.0684 1.82851,-0.44785 2.45099,-2.59541 2.18712,-4.26015 -0.0629,-2.11025 0.15679,-4.25062 -0.16995,-6.33916 -0.58346,-1.64401 -2.56374,-2.10527 -4.12107,-1.89678 -3.99857,0 -7.99714,0 -11.99571,0 0.01,-0.6225 -0.22003,-1.48505 0.7,-1.19671 4.88654,-0.0151 9.77822,0.0583 14.66133,-0.0689 1.8287,-0.44743 2.45084,-2.59558 2.18712,-4.26016 -0.063,-2.111496 0.1569,-4.253256 -0.17024,-6.342956 -0.60056,-1.682906 -2.63819,-2.096646 -4.21844,-1.893016 -8.61393,0.0141 -17.23229,-0.0556 -25.84336,0.0625 -1.71936,0.39667 -2.56827,2.366966 -2.25391,3.992576 -0.008,1.85919 0.0157,3.822176 -0.0117,5.616796 -2.86501,-4.576696 -7.68781,-7.815876 -12.97712,-8.849122 -6.00004,-1.30692 -12.17214,-0.6543 -18.25647,-0.82345 -1.54179,0.0498 -3.13767,-0.14179 -4.63945,0.2468 -1.47318,0.64018 -1.99536,2.421276 -1.74805,3.901166 0,1.56093 0,3.121866 0,4.682806 -2.86389,-4.787806 -7.89606,-8.121802 -13.36976,-9.095182 -2.18562,-0.43921 -4.42654,-0.56053 -6.65172,-0.49661 z m 1.32617,12.357412 c 2.50651,-0.0352 4.81206,1.76243 5.55599,4.12852 1.24932,3.14906 1.12479,6.66857 0.51737,9.94461 -0.55365,2.42092 -2.14342,4.9108 -4.72411,5.45463 -2.69053,0.6795 -5.85162,-0.65005 -6.91331,-3.29104 -1.43693,-2.96622 -1.40199,-6.38694 -0.99121,-9.55212 0.38581,-2.53115 1.58068,-5.32339 4.15334,-6.27685 0.76395,-0.29356 1.5859,-0.41295 2.40193,-0.40775 z m 34.54492,0.72071 c 2.63891,0.0165 5.59964,0.37085 7.4822,2.4342 2.00346,2.10776 2.28999,5.1888 2.11646,7.9554 -0.10096,2.46592 -1.08584,5.04789 -3.23459,6.42678 -1.46168,0.96827 -3.27357,1.34246 -4.89831,1.37634 -0.77557,0.0186 -1.55125,0.0363 -2.32709,0.0378 0,-6.07813 0,-12.15625 0,-18.23438 0.28711,0.001 0.57422,0.003 0.86133,0.004 z" />
        <text
           xml:space="preserve"
           style="font-style:normal;font-variant:normal;font-weight:bold;font-stretch:normal;font-size:51.7123px;font-family:Verdana;-inkscape-font-specification:'Verdana, Bold';font-variant-ligatures:normal;font-variant-caps:normal;font-variant-numeric:normal;font-variant-east-asian:normal;text-align:start;letter-spacing:-5.29167px;writing-mode:lr-tb;direction:ltr;text-anchor:start;fill:#000000;fill-opacity:1;stroke:none;stroke-width:6.00001;stroke-linejoin:round;stroke-opacity:1"
           x="84.488472"
           y="133.51445"
           id="text4"><tspan
             sodipodi:role="line"
             id="tspan4"
             style="font-style:normal;font-variant:normal;font-weight:bold;font-stretch:normal;font-size:51.7123px;font-family:Verdana;-inkscape-font-specification:'Verdana, Bold';font-variant-ligatures:normal;font-variant-caps:normal;font-variant-numeric:normal;font-variant-east-asian:normal;letter-spacing:-5.29167px;fill:#000000;fill-opacity:1;stroke:none;stroke-width:6"
             x="84.488472"
             y="133.51445">MODE</tspan></text>
      </g>
      <g
         id="g10"
         inkscape:label="Lab">
        <path
           id="text6"
           style="font-style:normal;font-variant:normal;font-weight:bold;font-stretch:normal;font-size:38.2138px;font-family:Verdana;-inkscape-font-specification:'Verdana, Bold';font-variant-ligatures:normal;font-variant-caps:normal;font-variant-numeric:normal;font-variant-east-asian:normal;text-align:start;letter-spacing:-1.95519px;writing-mode:lr-tb;direction:ltr;text-anchor:start;display:inline;fill:#ffffff;fill-opacity:1;stroke:none;stroke-width:4.43383;stroke-linejoin:round;stroke-opacity:1"
           d="m 222.44531,133.92773 c -1.90256,0.059 -3.83848,-0.15701 -5.71751,0.16298 -1.29487,0.51302 -1.71385,2.04907 -1.50909,3.31476 -5.9e-4,4.98529 -0.002,9.97057 -0.002,14.95586 -0.0662,-2.02248 0.1077,-4.18082 -0.98181,-5.98945 -1.17258,-2.24671 -3.42936,-3.7852 -5.889,-4.28712 -4.55481,-1.16112 -9.34095,-0.65721 -13.89677,0.22383 -0.97923,0.19876 -2.07476,0.61443 -2.35999,1.68463 -0.40574,1.41879 -0.0413,2.91435 -0.1898,4.36594 -0.0937,1.19277 0.1536,2.70308 1.44098,3.15769 0.51681,0.17709 1.01315,0.16442 0.29122,0.50879 -1.89843,1.23676 -3.16743,3.33358 -3.45975,5.57202 -3.04817,-0.012 -6.09635,-0.0161 -9.14454,-0.0117 -0.0138,-6.85966 0.0387,-13.72236 -0.0391,-20.58008 -0.32917,-1.49698 -2.05243,-2.02222 -3.40796,-1.83805 -2.14446,0.0896 -4.32288,-0.16292 -6.44431,0.1729 -1.29491,0.51302 -1.7138,2.04907 -1.50914,3.31476 0.0161,8.90861 -0.0493,17.82134 0.045,26.72734 0.37017,1.57138 2.22492,2.02431 3.62539,1.81252 6.26099,-0.0174 12.52681,0.0453 18.78476,-0.043 0.64336,-0.13066 1.1703,-0.64188 1.48828,-1.15625 3.30469,2.36732 7.89896,2.19651 11.41016,0.43946 1.08762,1.13786 2.77037,0.64584 4.15621,0.75536 1.51041,-0.0241 3.04919,0.099 4.54068,-0.131 0.97995,-0.32924 1.49868,-1.37484 1.55506,-2.35288 -0.19266,1.50435 1.3374,2.54514 2.70349,2.51812 2.14009,-0.11602 4.30692,0.10916 6.43551,-0.15162 0.43606,-0.43448 0.85748,-0.234 1.34649,-0.0231 4.22508,1.33708 9.3276,0.29748 12.23798,-3.17992 2.89752,-3.18938 3.75182,-7.7471 3.24962,-11.92466 -0.3552,-3.68357 -2.04287,-7.56148 -5.44184,-9.37159 -2.9498,-1.54374 -6.59792,-1.49107 -9.5957,-0.10547 -0.0418,-2.31861 0.12001,-4.66046 -0.12238,-6.9637 -0.49703,-1.48734 -2.25287,-1.72232 -3.60028,-1.57732 z m 5.9668,16.83008 c 1.02199,-0.059 1.55832,1.01063 1.58386,1.89428 0.30111,1.6892 0.2861,3.59382 -0.61588,5.09949 -0.79922,0.90152 -2.12923,0.90493 -3.23751,0.80701 0.0755,-2.48489 8.6e-4,-4.98519 0.0273,-7.47656 0.71455,-0.26156 1.4819,-0.38141 2.24219,-0.32422 z m -24.07422,7.72657 c -0.96323,0.51432 -2.17283,0.714 -3.20117,0.28515 -0.10841,-0.82744 0.94148,-0.7786 1.49131,-0.93968 0.56638,-0.10254 1.13822,-0.16566 1.70986,-0.23024 0,0.29492 0,0.58984 0,0.88477 z" />
        <text
           xml:space="preserve"
           style="font-style:normal;font-variant:normal;font-weight:bold;font-stretch:normal;font-size:38.2138px;font-family:Verdana;-inkscape-font-specification:'Verdana, Bold';font-variant-ligatures:normal;font-variant-caps:normal;font-variant-numeric:normal;font-variant-east-asian:normal;text-align:start;letter-spacing:-1.95519px;writing-mode:lr-tb;direction:ltr;text-anchor:start;display:inline;fill:#000000;fill-opacity:1;stroke:none;stroke-width:4.43383;stroke-linejoin:round;stroke-opacity:1"
           x="168.19897"
           y="165.07715"
           id="text7"><tspan
             sodipodi:role="line"
             id="tspan6"
             style="font-style:normal;font-variant:normal;font-weight:bold;font-stretch:normal;font-size:38.2138px;font-family:Verdana;-inkscape-font-specification:'Verdana, Bold';font-variant-ligatures:normal;font-variant-caps:normal;font-variant-numeric:normal;font-variant-east-asian:normal;letter-spacing:-1.95519px;fill:#000000;fill-opacity:1;stroke:none;stroke-width:4.43382"
             x="168.19897"
             y="165.07715">Lab</tspan></text>
      </g>
      <g
         id="g8"
         inkscape:label="MODE">
        <path
           id="path6"
           style="font-style:normal;font-variant:normal;font-weight:bold;font-stretch:normal;font-size:51.7123px;font-family:Verdana;-inkscape-font-specification:'Verdana, Bold';font-variant-ligatures:normal;font-variant-caps:normal;font-variant-numeric:normal;font-variant-east-asian:normal;text-align:start;letter-spacing:-5.29167px;writing-mode:lr-tb;direction:ltr;text-anchor:start;fill:#ffffff;fill-opacity:1;stroke:none;stroke-width:6;stroke-linejoin:round;stroke-dasharray:none;stroke-opacity:1"
           d="m 149.00658,92.508548 c -6.04925,0.14039 -12.29318,2.536076 -16.11361,7.378516 -0.56556,0.695276 -1.08229,1.430536 -1.54264,2.199606 -0.0268,-2.239606 0.0695,-4.495816 -0.0995,-6.724536 -0.49827,-1.768586 -2.59706,-2.342226 -4.22898,-2.091706 -3.42925,0.0542 -6.87508,-0.14603 -10.29258,0.14828 -1.78054,0.63001 -2.16424,2.657066 -2.92751,4.151846 -1.59838,3.577636 -3.19676,7.155276 -4.79514,10.732906 -2.11128,-4.64279 -4.10812,-9.344306 -6.35743,-13.919912 -1.14832,-1.40965 -3.105844,-1.09249 -4.708984,-1.11328 -3.126901,0.0699 -6.270868,-0.16462 -9.384766,0.17188 -1.629598,0.58002 -2.171607,2.515786 -1.916058,4.078896 0.01265,12.119806 -0.04472,24.242756 0.05082,36.360546 0.375307,1.8443 2.522547,2.55414 4.191796,2.27891 2.73312,-0.0537 5.479126,0.12737 8.202734,-0.13438 1.705138,-0.53887 2.204928,-2.57088 1.988278,-4.1582 0,-3.52539 0,-7.05078 0,-10.57617 0.73974,1.68876 1.40765,3.42503 2.31446,5.02929 1.36535,1.39656 3.44056,0.96456 5.18435,0.96857 1.65794,0.005 3.48655,0.30697 4.9928,-0.54344 1.46099,-1.16804 1.66439,-3.15524 2.52277,-4.71297 0.33391,-1.028 0.3603,-0.55431 0.31883,0.25073 0.009,3.89596 -0.0393,7.79688 0.0711,11.68946 0.44743,1.82877 2.59557,2.45069 4.26016,2.18722 2.87318,-0.0504 5.75877,0.1255 8.62265,-0.13449 1.70446,-0.53911 2.20469,-2.57118 1.98828,-4.1582 0,-1.51172 0,-3.02344 0,-4.53516 2.52371,4.22861 6.73275,7.3766 11.48774,8.64558 4.91019,1.36859 10.20262,1.26038 15.09956,-0.1053 4.56722,-1.37871 8.68696,-4.40513 11.08848,-8.56176 0.0258,2.25067 -0.0666,4.51794 0.10149,6.75774 0.50091,1.76963 2.60056,2.34429 4.23484,2.091 6.29238,-0.11605 12.62619,0.33654 18.88212,-0.52057 5.19047,-0.84821 10.19719,-3.5089 13.3123,-7.82266 0.3939,-0.51682 0.76009,-1.05457 1.10207,-1.60707 0.0276,2.61779 -0.0708,5.25234 0.10148,7.8593 0.49828,1.76869 2.59707,2.34202 4.22899,2.09187 8.65684,-0.022 17.31868,0.0682 25.97226,-0.0684 1.82798,-0.44861 2.45132,-2.59518 2.18711,-4.26016 -0.0629,-2.11024 0.1568,-4.25062 -0.16994,-6.33916 -0.58363,-1.64408 -2.56335,-2.10615 -4.12107,-1.89678 -4.41915,0 -8.83829,0 -13.25743,0 0,-1.33333 0,-2.66666 0,-4 4.69929,-0.0163 9.40378,0.0616 14.09961,-0.0684 1.82851,-0.44785 2.45099,-2.59541 2.18712,-4.26015 -0.0629,-2.11025 0.15679,-4.25062 -0.16995,-6.33916 -0.58346,-1.64401 -2.56374,-2.10527 -4.12107,-1.89678 -3.99857,0 -7.99714,0 -11.99571,0 0.01,-0.6225 -0.22003,-1.48505 0.7,-1.19671 4.88654,-0.0151 9.77822,0.0583 14.66133,-0.0689 1.8287,-0.44743 2.45084,-2.59558 2.18712,-4.26016 -0.063,-2.111496 0.1569,-4.253256 -0.17024,-6.342956 -0.60056,-1.682906 -2.63819,-2.096646 -4.21844,-1.893016 -8.61393,0.0141 -17.23229,-0.0556 -25.84336,0.0625 -1.71936,0.39667 -2.56827,2.366966 -2.25391,3.992576 -0.008,1.85919 0.0157,3.822176 -0.0117,5.616796 -2.86501,-4.576696 -7.68781,-7.815876 -12.97712,-8.849122 -6.00004,-1.30692 -12.17214,-0.6543 -18.25647,-0.82345 -1.54179,0.0498 -3.13767,-0.14179 -4.63945,0.2468 -1.47318,0.64018 -1.99536,2.421276 -1.74805,3.901166 0,1.56093 0,3.121866 0,4.682806 -2.86389,-4.787806 -7.89606,-8.121802 -13.36976,-9.095182 -2.18562,-0.43921 -4.42654,-0.56053 -6.65172,-0.49661 z m 1.32617,12.357412 c 2.50651,-0.0352 4.81206,1.76243 5.55599,4.12852 1.24932,3.14906 1.12479,6.66857 0.51737,9.94461 -0.55365,2.42092 -2.14342,4.9108 -4.72411,5.45463 -2.69053,0.6795 -5.85162,-0.65005 -6.91331,-3.29104 -1.43693,-2.96622 -1.40199,-6.38694 -0.99121,-9.55212 0.38581,-2.53115 1.58068,-5.32339 4.15334,-6.27685 0.76395,-0.29356 1.5859,-0.41295 2.40193,-0.40775 z m 34.54492,0.72071 c 2.63891,0.0165 5.59964,0.37085 7.4822,2.4342 2.00346,2.10776 2.28999,5.1888 2.11646,7.9554 -0.10096,2.46592 -1.08584,5.04789 -3.23459,6.42678 -1.46168,0.96827 -3.27357,1.34246 -4.89831,1.37634 -0.77557,0.0186 -1.55125,0.0363 -2.32709,0.0378 0,-6.07813 0,-12.15625 0,-18.23438 0.28711,0.001 0.57422,0.003 0.86133,0.004 z" />
        <text
           xml:space="preserve"
           style="font-style:normal;font-variant:normal;font-weight:bold;font-stretch:normal;font-size:51.7123px;font-family:Verdana;-inkscape-font-specification:'Verdana, Bold';font-variant-ligatures:normal;font-variant-caps:normal;font-variant-numeric:normal;font-variant-east-asian:normal;text-align:start;letter-spacing:-5.29167px;writing-mode:lr-tb;direction:ltr;text-anchor:start;fill:#000000;fill-opacity:1;stroke:none;stroke-width:6.00001;stroke-linejoin:round;stroke-opacity:1"
           x="84.488472"
           y="133.51445"
           id="text8"><tspan
             sodipodi:role="line"
             id="tspan7"
             style="font-style:normal;font-variant:normal;font-weight:bold;font-stretch:normal;font-size:51.7123px;font-family:Verdana;-inkscape-font-specification:'Verdana, Bold';font-variant-ligatures:normal;font-variant-caps:normal;font-variant-numeric:normal;font-variant-east-asian:normal;letter-spacing:-5.29167px;fill:#000000;fill-opacity:1;stroke:none;stroke-width:6"
             x="84.488472"
             y="133.51445">MODE</tspan></text>
      </g>
    </g>
    <g
       id="g16"
       inkscape:label="Text"
       transform="matrix(1.0961732,0,0,1.0961732,-29.093256,-47.783296)"
       style="display:inline">
      <g
         id="g9"
         inkscape:label="MODE"
         style="display:none">
        <path
           id="path7"
           style="font-style:normal;font-variant:normal;font-weight:bold;font-stretch:normal;font-size:51.7123px;font-family:Verdana;-inkscape-font-specification:'Verdana, Bold';font-variant-ligatures:normal;font-variant-caps:normal;font-variant-numeric:normal;font-variant-east-asian:normal;text-align:start;letter-spacing:-5.29167px;writing-mode:lr-tb;direction:ltr;text-anchor:start;fill:#ffffff;fill-opacity:1;stroke:none;stroke-width:6;stroke-linejoin:round;stroke-dasharray:none;stroke-opacity:1"
           d="m 149.00658,92.508548 c -6.04925,0.14039 -12.29318,2.536076 -16.11361,7.378516 -0.56556,0.695276 -1.08229,1.430536 -1.54264,2.199606 -0.0268,-2.239606 0.0695,-4.495816 -0.0995,-6.724536 -0.49827,-1.768586 -2.59706,-2.342226 -4.22898,-2.091706 -3.42925,0.0542 -6.87508,-0.14603 -10.29258,0.14828 -1.78054,0.63001 -2.16424,2.657066 -2.92751,4.151846 -1.59838,3.577636 -3.19676,7.155276 -4.79514,10.732906 -2.11128,-4.64279 -4.10812,-9.344306 -6.35743,-13.919912 -1.14832,-1.40965 -3.105844,-1.09249 -4.708984,-1.11328 -3.126901,0.0699 -6.270868,-0.16462 -9.384766,0.17188 -1.629598,0.58002 -2.171607,2.515786 -1.916058,4.078896 0.01265,12.119806 -0.04472,24.242756 0.05082,36.360546 0.375307,1.8443 2.522547,2.55414 4.191796,2.27891 2.73312,-0.0537 5.479126,0.12737 8.202734,-0.13438 1.705138,-0.53887 2.204928,-2.57088 1.988278,-4.1582 0,-3.52539 0,-7.05078 0,-10.57617 0.73974,1.68876 1.40765,3.42503 2.31446,5.02929 1.36535,1.39656 3.44056,0.96456 5.18435,0.96857 1.65794,0.005 3.48655,0.30697 4.9928,-0.54344 1.46099,-1.16804 1.66439,-3.15524 2.52277,-4.71297 0.33391,-1.028 0.3603,-0.55431 0.31883,0.25073 0.009,3.89596 -0.0393,7.79688 0.0711,11.68946 0.44743,1.82877 2.59557,2.45069 4.26016,2.18722 2.87318,-0.0504 5.75877,0.1255 8.62265,-0.13449 1.70446,-0.53911 2.20469,-2.57118 1.98828,-4.1582 0,-1.51172 0,-3.02344 0,-4.53516 2.52371,4.22861 6.73275,7.3766 11.48774,8.64558 4.91019,1.36859 10.20262,1.26038 15.09956,-0.1053 4.56722,-1.37871 8.68696,-4.40513 11.08848,-8.56176 0.0258,2.25067 -0.0666,4.51794 0.10149,6.75774 0.50091,1.76963 2.60056,2.34429 4.23484,2.091 6.29238,-0.11605 12.62619,0.33654 18.88212,-0.52057 5.19047,-0.84821 10.19719,-3.5089 13.3123,-7.82266 0.3939,-0.51682 0.76009,-1.05457 1.10207,-1.60707 0.0276,2.61779 -0.0708,5.25234 0.10148,7.8593 0.49828,1.76869 2.59707,2.34202 4.22899,2.09187 8.65684,-0.022 17.31868,0.0682 25.97226,-0.0684 1.82798,-0.44861 2.45132,-2.59518 2.18711,-4.26016 -0.0629,-2.11024 0.1568,-4.25062 -0.16994,-6.33916 -0.58363,-1.64408 -2.56335,-2.10615 -4.12107,-1.89678 -4.41915,0 -8.83829,0 -13.25743,0 0,-1.33333 0,-2.66666 0,-4 4.69929,-0.0163 9.40378,0.0616 14.09961,-0.0684 1.82851,-0.44785 2.45099,-2.59541 2.18712,-4.26015 -0.0629,-2.11025 0.15679,-4.25062 -0.16995,-6.33916 -0.58346,-1.64401 -2.56374,-2.10527 -4.12107,-1.89678 -3.99857,0 -7.99714,0 -11.99571,0 0.01,-0.6225 -0.22003,-1.48505 0.7,-1.19671 4.88654,-0.0151 9.77822,0.0583 14.66133,-0.0689 1.8287,-0.44743 2.45084,-2.59558 2.18712,-4.26016 -0.063,-2.111496 0.1569,-4.253256 -0.17024,-6.342956 -0.60056,-1.682906 -2.63819,-2.096646 -4.21844,-1.893016 -8.61393,0.0141 -17.23229,-0.0556 -25.84336,0.0625 -1.71936,0.39667 -2.56827,2.366966 -2.25391,3.992576 -0.008,1.85919 0.0157,3.822176 -0.0117,5.616796 -2.86501,-4.576696 -7.68781,-7.815876 -12.97712,-8.849122 -6.00004,-1.30692 -12.17214,-0.6543 -18.25647,-0.82345 -1.54179,0.0498 -3.13767,-0.14179 -4.63945,0.2468 -1.47318,0.64018 -1.99536,2.421276 -1.74805,3.901166 0,1.56093 0,3.121866 0,4.682806 -2.86389,-4.787806 -7.89606,-8.121802 -13.36976,-9.095182 -2.18562,-0.43921 -4.42654,-0.56053 -6.65172,-0.49661 z m 1.32617,12.357412 c 2.50651,-0.0352 4.81206,1.76243 5.55599,4.12852 1.24932,3.14906 1.12479,6.66857 0.51737,9.94461 -0.55365,2.42092 -2.14342,4.9108 -4.72411,5.45463 -2.69053,0.6795 -5.85162,-0.65005 -6.91331,-3.29104 -1.43693,-2.96622 -1.40199,-6.38694 -0.99121,-9.55212 0.38581,-2.53115 1.58068,-5.32339 4.15334,-6.27685 0.76395,-0.29356 1.5859,-0.41295 2.40193,-0.40775 z m 34.54492,0.72071 c 2.63891,0.0165 5.59964,0.37085 7.4822,2.4342 2.00346,2.10776 2.28999,5.1888 2.11646,7.9554 -0.10096,2.46592 -1.08584,5.04789 -3.23459,6.42678 -1.46168,0.96827 -3.27357,1.34246 -4.89831,1.37634 -0.77557,0.0186 -1.55125,0.0363 -2.32709,0.0378 0,-6.07813 0,-12.15625 0,-18.23438 0.28711,0.001 0.57422,0.003 0.86133,0.004 z" />
        <text
           xml:space="preserve"
           style="font-style:normal;font-variant:normal;font-weight:bold;font-stretch:normal;font-size:51.7123px;font-family:Verdana;-inkscape-font-specification:'Verdana, Bold';font-variant-ligatures:normal;font-variant-caps:normal;font-variant-numeric:normal;font-variant-east-asian:normal;text-align:start;letter-spacing:-5.29167px;writing-mode:lr-tb;direction:ltr;text-anchor:start;fill:#000000;fill-opacity:1;stroke:none;stroke-width:6.00001;stroke-linejoin:round;stroke-opacity:1"
           x="84.488472"
           y="133.51445"
           id="text9"><tspan
             sodipodi:role="line"
             id="tspan8"
             style="font-style:normal;font-variant:normal;font-weight:bold;font-stretch:normal;font-size:51.7123px;font-family:Verdana;-inkscape-font-specification:'Verdana, Bold';font-variant-ligatures:normal;font-variant-caps:normal;font-variant-numeric:normal;font-variant-east-asian:normal;letter-spacing:-5.29167px;fill:#000000;fill-opacity:1;stroke:none;stroke-width:6"
             x="84.488472"
             y="133.51445">MODE</tspan></text>
      </g>
      <g
         id="g15"
         inkscape:label="MODE"
         style="display:inline"
         transform="matrix(0.83998309,0,0,0.83998309,21.463191,28.104887)">
        <path
           id="text22"
           style="font-style:normal;font-variant:normal;font-weight:bold;font-stretch:normal;font-size:66.9117px;font-family:Verdana;-inkscape-font-specification:'Verdana, Bold';font-variant-ligatures:normal;font-variant-caps:normal;font-variant-numeric:normal;font-variant-east-asian:normal;text-align:start;letter-spacing:-2.94065px;writing-mode:lr-tb;direction:ltr;text-anchor:start;display:inline;fill:#ffffff;fill-opacity:1;stroke:none;stroke-width:7.76355;stroke-linejoin:round;stroke-opacity:1"
           d="m 161.34375,75.877843 c -8.12054,-0.07972 -16.34603,3.989765 -20.66591,10.966223 -0.33484,0.486202 -0.62694,0.999482 -0.93175,1.50448 -0.0291,-2.695683 0.0695,-5.407452 -0.1391,-8.092159 -0.63274,-2.476702 -3.46703,-3.712193 -5.8437,-3.345781 -4.20964,0.103534 -8.43351,-0.166523 -12.63243,0.211378 -2.15693,0.632179 -3.12578,2.88593 -3.77734,4.835937 -1.78321,4.433594 -3.56641,8.867188 -5.34961,13.300782 -2.26809,-5.523487 -4.37129,-11.12131 -6.85743,-16.550782 -1.35682,-1.801502 -3.82468,-1.927136 -5.886714,-1.787109 -3.967314,0.0995 -7.954776,-0.212716 -11.90625,0.240234 -2.385202,0.730098 -3.533082,3.4962 -3.126985,5.822657 0.0134,16.7441 -0.0657,33.491257 0.09055,50.233337 0.513849,2.58884 3.45282,3.97954 5.901673,3.54947 3.475569,-0.0854 6.979877,0.2313 10.431636,-0.27929 2.29772,-0.85583 4.22012,-3.41139 3.90706,-5.67666 l -0.90177,-7.51847 c -0.10203,-0.85069 1.45427,0.96371 2.28311,1.18077 2.25204,0.58979 6.17511,0.80396 6.17511,0.80396 l 6.89596,-0.30204 c 0.008,4.02054 -0.0103,4.37254 0.13414,8.38939 0.60642,2.50587 4.25977,3.81109 6.66264,3.4043 3.68252,-0.0932 7.39306,0.23468 11.05274,-0.28125 2.29771,-0.85583 3.20563,-3.5863 2.89257,-5.85157 6.5e-4,-1.76367 0.001,-3.52734 0.002,-5.29101 3.06121,5.38211 8.10871,9.77578 14.16171,11.37288 6.31044,1.79539 13.26114,1.43502 19.29727,-1.16585 4.60817,-2.09949 8.43922,-5.7576 10.94336,-10.14063 0.0319,2.68252 -0.073,5.38186 0.14372,8.05289 0.66139,2.49387 3.53859,3.71545 5.93283,3.30315 7.87287,-0.15078 15.85219,0.53669 23.61837,-1.09488 5.95593,-1.40838 11.18725,-5.29169 14.53337,-10.38292 0.36052,-0.52894 0.70072,-1.07175 1.02366,-1.62433 0.0327,3.26583 -0.0832,6.54849 0.14775,9.80285 0.66304,2.48763 3.53029,3.70968 5.921,3.30064 10.05719,-0.0405 20.12034,0.11583 30.17344,-0.12693 2.48017,-0.62528 3.72487,-3.46035 3.35547,-5.83789 -0.0904,-3.1408 0.23312,-6.32092 -0.28283,-9.4309 -0.8361,-2.2941 -3.56121,-3.26632 -5.8285,-2.91871 h -13.55664 v -4.43164 c 4.97426,-0.0434 9.96011,0.14025 14.92578,-0.16797 2.4261,-0.71662 3.5497,-3.5321 3.19141,-5.87695 -0.0865,-3.11737 0.23629,-6.27497 -0.2869,-9.360519 -0.83608,-2.295327 -3.56577,-3.253516 -5.83029,-2.90901 h -11.98437 c -0.32194,-0.819693 0.80547,-0.344826 1.2531,-0.473588 5.07549,-0.02743 10.16225,0.13679 15.22932,-0.16899 2.40956,-0.730512 3.52434,-3.528345 3.16797,-5.865234 -0.0957,-3.13799 0.25991,-6.323219 -0.30954,-9.424509 -0.85564,-2.26047 -3.53872,-3.169554 -5.77874,-2.870176 -9.92212,0.0445 -19.84643,-0.02181 -29.76719,0.06226 -2.64543,0.467335 -4.24516,3.413888 -3.74612,5.945703 -6.5e-4,2.253125 -10e-4,4.50625 -0.002,6.759375 -3.56616,-5.98797 -9.57835,-10.692445 -16.53192,-11.884441 -6.19376,-1.198971 -12.53258,-0.74502 -18.8005,-0.855395 -2.26169,0.02079 -4.55238,-0.116711 -6.79137,0.232803 -2.30729,0.657885 -3.43131,3.282098 -3.15564,5.523806 0.03,1.875112 0.0313,3.750501 0.0275,5.625805 -2.928,-5.164127 -7.71671,-9.327018 -13.41692,-11.11181 -3.01654,-1.002342 -6.21456,-1.416825 -9.38777,-1.32569 z m 1.18359,18.22461 c 2.27354,0.366293 3.87251,2.423549 4.40641,4.558891 1.28259,3.626266 1.33081,7.543116 1.05802,11.379836 -0.23446,3.17763 -1.04252,6.63774 -3.5445,8.81908 -2.13455,1.50984 -5.51585,0.62693 -6.55032,-1.80443 -2.11866,-3.5644 -2.17003,-7.86956 -2.06813,-11.89274 0.1244,-3.19418 0.65328,-6.553897 2.50712,-9.222747 0.95819,-1.316514 2.5502,-2.111577 4.1914,-1.83789 z m 42.12305,0.984375 c 2.03636,0.02838 4.24079,0.43868 5.67188,2.017578 2.4818,2.465301 3.1134,6.124504 3.11914,9.486714 0.01,3.00699 -0.37392,6.1825 -2.02539,8.76524 -1.36062,2.01401 -3.73738,3.38331 -6.20224,3.20141 -0.52124,-0.0133 -1.34447,0.25359 -1.0673,-0.58071 V 95.079015 l 0.50391,0.0078 z"
           sodipodi:nodetypes="scccccccccccccccssccccccccccccccccccccccccccccccccccccccccccssccccccccscccccccs" />
        <path
           id="path26"
           style="font-style:normal;font-variant:normal;font-weight:bold;font-stretch:normal;font-size:66.9117px;font-family:Verdana;-inkscape-font-specification:'Verdana, Bold';font-variant-ligatures:normal;font-variant-caps:normal;font-variant-numeric:normal;font-variant-east-asian:normal;text-align:start;letter-spacing:-2.94065px;writing-mode:lr-tb;direction:ltr;text-anchor:start;display:inline;fill:#ffffff;fill-opacity:1;stroke:none;stroke-width:7.76355;stroke-linejoin:round;stroke-opacity:1"
           d="m 161.34375,72.963066 c -8.12054,-0.07972 -16.34603,3.989765 -20.66591,10.966223 -0.33484,0.486202 -0.62694,0.999482 -0.93175,1.50448 -0.0291,-2.695683 0.0695,-5.407452 -0.1391,-8.092159 -0.63274,-2.476702 -3.46703,-3.712193 -5.8437,-3.345781 -4.20964,0.103534 -7.91405,-0.464811 -12.28612,-0.433214 -3.80191,0.423448 -2.73746,-0.772268 -6.50243,5.480529 l -2.69873,4.661258 c -2.26809,-5.523487 -2.91274,-3.301567 -7.12953,-7.911258 -1.35682,-1.801502 -3.82468,-1.927136 -5.886714,-1.787109 -3.967314,0.0995 -7.954776,-0.212716 -11.90625,0.240234 -2.385202,0.730098 -3.533082,3.4962 -3.126985,5.822657 0.0134,16.7441 -0.0657,33.491264 0.09055,50.233344 0.513849,2.58884 3.45282,3.97954 5.901673,3.54947 3.475569,-0.0854 6.979877,0.2313 10.431636,-0.27929 2.29772,-0.85583 3.20564,-3.5863 2.89258,-5.85157 v -9.47656 c 0.49054,1.22583 1.12439,2.54279 2.44529,3.04167 2.19749,0.93355 4.62565,0.31782 6.93023,0.51635 1.71021,0.004 3.59661,0.0809 5.08932,-0.88224 0.84547,-0.63535 1.41651,-1.56424 1.80664,-2.5332 0.008,4.02054 -0.0233,8.04565 0.1211,12.0625 0.60642,2.50587 3.46822,3.81109 5.87109,3.4043 3.68252,-0.0932 7.39306,0.23468 11.05274,-0.28125 2.29771,-0.85583 3.20563,-3.5863 2.89257,-5.85157 6.5e-4,-1.76367 0.001,-3.52734 0.002,-5.29101 3.06121,5.38211 8.10871,9.77578 14.16171,11.37288 6.31044,1.79539 13.26114,1.43502 19.29727,-1.16585 4.60817,-2.09949 8.43922,-5.7576 10.94336,-10.14063 0.0319,2.68252 -0.073,5.38186 0.14372,8.05289 0.66139,2.49387 3.53859,3.71545 5.93283,3.30315 7.87287,-0.15078 15.85219,0.53669 23.61837,-1.09488 5.95593,-1.40838 11.18725,-5.29169 14.53337,-10.38292 0.36052,-0.52894 0.70072,-1.07175 1.02366,-1.62433 0.0327,3.26583 -0.0832,6.54849 0.14775,9.80285 0.66304,2.48763 3.53029,3.70968 5.921,3.30064 10.05719,-0.0405 20.12034,0.11583 30.17344,-0.12693 2.48017,-0.62528 3.72487,-3.46035 3.35547,-5.83789 -0.0904,-3.1408 0.23312,-6.32092 -0.28283,-9.4309 -0.8361,-2.2941 -3.56121,-3.26632 -5.8285,-2.91871 h -13.55664 v -4.43164 c 4.97426,-0.0434 9.96011,0.14025 14.92578,-0.16797 2.4261,-0.71662 3.5497,-3.5321 3.19141,-5.87695 -0.0865,-3.11737 0.23629,-6.274975 -0.2869,-9.360526 -0.83608,-2.295327 -3.56577,-3.253516 -5.83029,-2.90901 h -11.98437 c -0.32194,-0.819693 0.80547,-0.344826 1.2531,-0.473588 5.07549,-0.02743 10.16225,0.13679 15.22932,-0.16899 2.40956,-0.730512 3.52434,-3.528345 3.16797,-5.865234 -0.0957,-3.13799 0.25991,-6.323219 -0.30954,-9.424509 -0.85564,-2.26047 -3.53872,-3.169554 -5.77874,-2.870176 -9.92212,0.0445 -19.84643,-0.02181 -29.76719,0.06226 -2.64543,0.467335 -4.24516,3.413888 -3.74612,5.945703 -6.5e-4,2.253125 -10e-4,4.50625 -0.002,6.759375 -3.56616,-5.98797 -9.57835,-10.692445 -16.53192,-11.884441 -6.19376,-1.198971 -12.53258,-0.74502 -18.8005,-0.855395 -2.26169,0.02079 -4.55238,-0.116711 -6.79137,0.232803 -2.30729,0.657885 -3.43131,3.282098 -3.15564,5.523806 0.03,1.875112 0.0313,3.750501 0.0275,5.625805 -2.928,-5.164127 -7.71671,-9.327018 -13.41692,-11.11181 -3.01654,-1.002342 -6.21456,-1.416825 -9.38777,-1.32569 z m 1.18359,18.22461 c 2.27354,0.366293 3.87251,2.423549 4.40641,4.558891 1.28259,3.626268 1.33081,7.543123 1.05802,11.379843 -0.23446,3.17763 -1.04252,6.63774 -3.5445,8.81908 -2.13455,1.50984 -5.51585,0.62693 -6.55032,-1.80443 -2.11866,-3.5644 -2.17003,-7.86956 -2.06813,-11.89274 0.1244,-3.194185 0.65328,-6.553904 2.50712,-9.222754 0.95819,-1.316514 2.5502,-2.111577 4.1914,-1.83789 z m 42.12305,0.984375 c 2.03636,0.02838 4.24079,0.43868 5.67188,2.017578 2.4818,2.465301 3.1134,6.124511 3.11914,9.486721 0.01,3.00699 -0.37392,6.1825 -2.02539,8.76524 -1.36062,2.01401 -3.73738,3.38331 -6.20224,3.20141 -0.52124,-0.0133 -1.34447,0.25359 -1.0673,-0.58071 V 92.164238 l 0.50391,0.0078 z"
           sodipodi:nodetypes="sccccccccccccccccccccccccccccccccccccccccccccccccccccccccccccssccccccccscccccccs" />
        <text
           xml:space="preserve"
           style="font-style:normal;font-variant:normal;font-weight:bold;font-stretch:normal;font-size:66.9117px;font-family:Verdana;-inkscape-font-specification:'Verdana, Bold';font-variant-ligatures:normal;font-variant-caps:normal;font-variant-numeric:normal;font-variant-east-asian:normal;text-align:start;letter-spacing:-2.94065px;writing-mode:lr-tb;direction:ltr;text-anchor:start;display:inline;fill:#000000;fill-opacity:1;stroke:none;stroke-width:7.76355;stroke-linejoin:round;stroke-opacity:1"
           x="88.248596"
           y="124.06567"
           id="text26"
           transform="scale(0.94804055,1.0548072)"><tspan
             sodipodi:role="line"
             id="tspan26"
             style="font-style:normal;font-variant:normal;font-weight:bold;font-stretch:normal;font-size:66.9117px;font-family:Tahoma;-inkscape-font-specification:'Tahoma Bold';font-variant-ligatures:normal;font-variant-caps:normal;font-variant-numeric:normal;font-variant-east-asian:normal;letter-spacing:-2.94065px;fill:#000000;fill-opacity:1;stroke:none;stroke-width:7.76352"
             x="88.248596"
             y="124.06567">MODE</tspan></text>
      </g>
      <g
         id="g14"
         inkscape:label="Lab"
         style="display:inline"
         transform="matrix(1.0931866,0,0,1,7.0409954,5.8676416)">
        <text
           xml:space="preserve"
           style="font-style:normal;font-variant:normal;font-weight:bold;font-stretch:normal;font-size:36.3764px;font-family:Verdana;-inkscape-font-specification:'Verdana, Bold';font-variant-ligatures:normal;font-variant-caps:normal;font-variant-numeric:normal;font-variant-east-asian:normal;text-align:start;letter-spacing:0px;writing-mode:lr-tb;direction:ltr;text-anchor:start;display:inline;fill:#000000;fill-opacity:1;stroke:none;stroke-width:4.22064;stroke-linejoin:round;stroke-opacity:1"
           x="163.06908"
           y="154.04962"
           id="text10"
           transform="scale(0.95191627,1.0505126)"><tspan
             sodipodi:role="line"
             id="tspan10"
             style="font-style:normal;font-variant:normal;font-weight:bold;font-stretch:normal;font-size:36.3764px;font-family:Tahoma;-inkscape-font-specification:'Tahoma Bold';font-variant-ligatures:normal;font-variant-caps:normal;font-variant-numeric:normal;font-variant-east-asian:normal;letter-spacing:0px;fill:#000000;fill-opacity:1;stroke:none;stroke-width:4.22063"
             x="163.06908"
             y="154.04962">Lab</tspan></text>
      </g>
    </g>
  </g>
  <g
     inkscape:label="Layer 1 copy"
     inkscape:groupmode="layer"
     id="g38"
     transform="translate(-153.50167,-117.30594)"
     style="display:inline"
     inkscape:export-filename="Website\MODE Lab Black.svg"
     inkscape:export-xdpi="96"
     inkscape:export-ydpi="96">
    <g
       id="g37"
       inkscape:label="Text"
       transform="matrix(1.0961732,0,0,1.0961732,-35.915036,-47.783297)"
       style="display:none;fill:#000000"
       inkscape:export-filename="MODELab White.png"
       inkscape:export-xdpi="96"
       inkscape:export-ydpi="96">
      <g
         id="g35"
         inkscape:label="MODE"
         style="display:inline;fill:#000000"
         transform="matrix(0.83998309,0,0,0.83998309,31.68855,28.104887)">
        <text
           xml:space="preserve"
           style="font-style:normal;font-variant:normal;font-weight:normal;font-stretch:normal;font-size:67.0487px;font-family:Outfit;-inkscape-font-specification:'Outfit, @wght=700';font-variant-ligatures:normal;font-variant-caps:normal;font-variant-numeric:normal;font-variant-east-asian:normal;font-variation-settings:'wght' 700;text-align:start;letter-spacing:-2.94065px;writing-mode:lr-tb;direction:ltr;text-anchor:start;display:inline;fill:#000000;fill-opacity:1;stroke:none;stroke-width:7.76355;stroke-linejoin:round;stroke-opacity:1"
           x="85.485725"
           y="121.36459"
           id="text35"
           transform="scale(0.94804055,1.0548072)"><tspan
             sodipodi:role="line"
             id="tspan35"
             style="font-style:normal;font-variant:normal;font-weight:normal;font-stretch:normal;font-size:67.0487px;font-family:Outfit;-inkscape-font-specification:'Outfit, @wght=600';font-variant-ligatures:normal;font-variant-caps:normal;font-variant-numeric:normal;font-variant-east-asian:normal;font-variation-settings:'wght' 600;letter-spacing:-2.94065px;fill:#000000;fill-opacity:1;stroke:none;stroke-width:7.76352"
             x="85.485725"
             y="121.36459">MODE</tspan></text>
        <text
           xml:space="preserve"
           style="font-style:normal;font-variant:normal;font-weight:normal;font-stretch:normal;font-size:67.0487px;font-family:Outfit;-inkscape-font-specification:'Outfit, @wght=700';font-variant-ligatures:normal;font-variant-caps:normal;font-variant-numeric:normal;font-variant-east-asian:normal;font-variation-settings:'wght' 700;text-align:start;letter-spacing:-2.94065px;writing-mode:lr-tb;direction:ltr;text-anchor:start;display:none;fill:#ffffff;fill-opacity:1;stroke:none;stroke-width:7.76355;stroke-linejoin:round;stroke-opacity:1"
           x="85.485725"
           y="121.36459"
           id="text24"
           transform="scale(0.94804055,1.0548072)"><tspan
             sodipodi:role="line"
             id="tspan24"
             style="font-style:normal;font-variant:normal;font-weight:normal;font-stretch:normal;font-size:67.0487px;font-family:Outfit;-inkscape-font-specification:'Outfit, @wght=600';font-variant-ligatures:normal;font-variant-caps:normal;font-variant-numeric:normal;font-variant-east-asian:normal;font-variation-settings:'wght' 600;letter-spacing:-2.94065px;fill:#ffffff;fill-opacity:1;stroke:none;stroke-width:7.76352"
             x="0"
             y="0">MODE</tspan></text>
      </g>
      <g
         id="g36"
         inkscape:label="Lab"
         style="display:inline;fill:#000000"
         transform="matrix(1.1270265,0,0,1.0309553,4.1144055,-0.96600421)">
        <text
           xml:space="preserve"
           style="font-style:normal;font-variant:normal;font-weight:bold;font-stretch:normal;font-size:36.3764px;font-family:Outfit;-inkscape-font-specification:'Outfit, Bold';font-variant-ligatures:normal;font-variant-caps:normal;font-variant-numeric:normal;font-variant-east-asian:normal;text-align:start;letter-spacing:0px;writing-mode:lr-tb;direction:ltr;text-anchor:start;display:inline;fill:#000000;fill-opacity:1;stroke:none;stroke-width:4.22064;stroke-linejoin:round;stroke-opacity:1"
           x="168.52483"
           y="153.19713"
           id="text36"
           transform="scale(0.95191624,1.0505126)"><tspan
             sodipodi:role="line"
             id="tspan36"
             style="font-style:normal;font-variant:normal;font-weight:bold;font-stretch:normal;font-size:36.3764px;font-family:Outfit;-inkscape-font-specification:'Outfit, Bold';font-variant-ligatures:normal;font-variant-caps:normal;font-variant-numeric:normal;font-variant-east-asian:normal;letter-spacing:0px;fill:#000000;fill-opacity:1;stroke:none;stroke-width:4.22063"
             x="168.52483"
             y="153.19713">Lab</tspan></text>
        <text
           xml:space="preserve"
           style="font-style:normal;font-variant:normal;font-weight:bold;font-stretch:normal;font-size:36.3764px;font-family:Outfit;-inkscape-font-specification:'Outfit, Bold';font-variant-ligatures:normal;font-variant-caps:normal;font-variant-numeric:normal;font-variant-east-asian:normal;text-align:start;letter-spacing:0px;writing-mode:lr-tb;direction:ltr;text-anchor:start;display:none;fill:#ffffff;fill-opacity:1;stroke:none;stroke-width:4.22064;stroke-linejoin:round;stroke-opacity:1"
           x="168.52483"
           y="153.19713"
           id="text2"
           transform="scale(0.95191624,1.0505126)"><tspan
             sodipodi:role="line"
             id="tspan2"
             style="font-style:normal;font-variant:normal;font-weight:bold;font-stretch:normal;font-size:36.3764px;font-family:Outfit;-inkscape-font-specification:'Outfit, Bold';font-variant-ligatures:normal;font-variant-caps:normal;font-variant-numeric:normal;font-variant-east-asian:normal;letter-spacing:0px;fill:#ffffff;fill-opacity:1;stroke:none;stroke-width:4.22063"
             x="0"
             y="0">Lab</tspan></text>
      </g>
    </g>
    <g
       id="g17-8"
       inkscape:label="Flask"
       transform="translate(127.07202,51.837474)"
       style="display:inline;fill:#000000">
      <path
         id="path10-8"
         style="display:inline;fill:#000000;fill-opacity:1;stroke:none;stroke-width:0;stroke-linejoin:round;stroke-dasharray:none;stroke-opacity:1"
         d="m 36.708984,150.23633 c -0.552734,1.19466 -1.105468,2.38932 -1.658203,3.58398 0.06356,0.67347 0.599523,0.9144 1.172069,1.10218 7.997996,3.18608 16.696821,4.48421 25.282901,4.18781 5.034347,-0.17452 10.023341,-1.14024 15.018824,-1.54721 8.768231,-0.84957 17.589359,-1.26616 26.403155,-0.76621 2.67361,0.17583 5.52277,0.4107 8.1211,0.90429 0.54133,-0.4782 0.64956,-0.99431 0.16324,-1.56244 -0.64584,-1.19851 -1.18736,-2.48972 -1.8969,-3.63161 -0.66036,-0.47787 -1.57208,-0.22809 -2.34226,-0.38804 -6.9461,-0.57368 -13.943339,-0.68908 -20.884774,0.0158 -7.713475,0.71543 -15.375331,1.72855 -23.105714,2.24203 -3.888162,0.18871 -7.85983,0.15083 -11.746423,-0.2987 -4.158954,-0.48807 -8.410853,-1.37232 -12.264436,-3.21958 -0.551559,-0.213 -1.06088,-0.67301 -1.592976,-0.81707 -0.223201,0.0649 -0.446402,0.12982 -0.669603,0.19473 z" />
      <path
         id="path11-2"
         style="display:inline;fill:#000000;fill-opacity:1;stroke:none;stroke-width:8.485;stroke-linejoin:round;stroke-dasharray:none;stroke-opacity:1"
         d="m 96.849609,65.472656 c -11.144098,0.05056 -22.29252,0.008 -33.438281,0.02278 -5.652676,0.01852 -11.309393,-0.03616 -16.959544,0.02812 -2.130855,0.280799 -3.28996,2.480087 -3.645603,4.397905 -0.361087,2.133671 -0.193524,4.313126 -0.148049,6.462758 0.189943,2.089699 1.088003,4.500688 3.222727,5.268117 0.951616,0.264658 1.945391,0.144249 2.917969,0.138672 0,11.971354 0,23.942702 0,35.914062 -6.986311,14.21321 -14.022069,28.40369 -20.961211,42.63873 -2.792942,6.73758 -1.352065,15.00705 3.617195,20.36085 3.865704,4.30721 9.728423,6.6468 15.492844,6.34812 17.481927,-0.0125 34.96481,0.0349 52.446131,-0.0344 7.132263,-0.32872 13.848453,-4.98904 16.651383,-11.55755 2.39845,-5.43149 2.1475,-11.97903 -0.8113,-17.14797 -6.64501,-13.53461 -13.29003,-27.06923 -19.935042,-40.60384 0.0091,-11.97005 -0.01823,-23.976558 0.01367,-35.923822 1.502105,0.07295 3.303132,0.224678 4.370046,-1.073954 1.761456,-1.841403 1.889196,-4.55111 1.824196,-6.955297 0.0648,-2.505354 -0.0313,-5.337069 -1.87393,-7.257858 -0.729355,-0.718781 -1.767517,-1.072906 -2.783203,-1.025391 z m -2.271484,7.023438 c -5.31e-4,0.772915 0.13861,1.645085 0.01367,2.363281 -2.772954,0.200358 -5.615828,2.139052 -6.058594,5.017578 -0.207485,12.167197 -0.08708,24.337487 -0.100682,36.505127 0.02733,1.82952 0.24767,3.72478 1.238047,5.30794 6.305186,13.02726 12.673654,26.02478 19.116534,38.9839 1.9494,3.39307 2.74383,7.86717 1.13105,11.62134 -1.72746,4.2199 -5.87964,7.55374 -10.507585,7.76153 -17.796229,0.20668 -35.594727,0.0536 -53.391036,0.16001 -3.168419,-0.0969 -6.688818,-1.24603 -9.023798,-3.66139 -3.319711,-3.32812 -4.67511,-8.66667 -2.916115,-13.08433 6.5257,-13.86298 13.502717,-27.51648 20.155233,-41.331 0.695063,-1.48344 1.436299,-3.01824 1.353971,-4.70297 0.141192,-11.97134 0.07615,-23.946021 0.09519,-35.917821 -0.0355,-2.074275 -0.77858,-4.287431 -2.59107,-5.465368 -1.042957,-0.731594 -2.316561,-1.097417 -3.583171,-1.133999 -0.02456,-0.842077 -0.03661,-1.685617 0.0039,-2.527344 15.01888,-0.01237 30.03776,-0.02474 45.05664,-0.03711 l 0.0055,0.09985 z" />
      <path
         id="path12-4"
         style="display:none;fill:#000000;fill-opacity:1;stroke:none;stroke-width:8.485;stroke-linejoin:round;stroke-dasharray:none;stroke-opacity:1"
         d="m 46.712891,66.025391 c -1.897414,0.101486 -2.942724,2.056555 -3.330079,3.703125 -0.44259,2.035445 -0.199659,4.137713 -0.238281,6.203125 0.137629,1.940102 0.772506,4.215965 2.65522,5.138313 1.123199,0.408872 2.357965,0.121129 3.528374,0.20739 0,12.183594 0,24.367186 0,36.550776 -6.971199,14.17731 -13.973462,28.34062 -20.925324,42.52664 -2.626234,6.19118 -1.622208,13.75653 2.609284,18.9993 3.600602,4.63759 9.466888,7.34961 15.327759,7.16938 17.544388,-0.0115 35.089348,0.0231 52.633379,-0.0173 6.448257,-0.17004 12.637967,-3.94516 15.751667,-9.59266 3.09879,-5.4402 3.26848,-12.49454 0.21825,-17.99213 -2.87856,-5.86453 -5.75771,-11.72878 -8.6365,-17.59321 -0.69192,-0.5622 -1.65204,-0.18991 -2.47461,-0.29687 -1.17773,0 -2.35547,0 -3.5332,0 -0.540635,0.52773 -0.450318,1.08583 -0.0308,1.65979 2.939,5.89854 5.97944,11.74764 8.93152,17.63831 1.82593,3.17068 2.7195,7.1638 1.67872,10.79802 -1.37043,4.94449 -5.88969,8.97729 -11.041161,9.45469 -17.511171,0.2219 -35.024786,0.0439 -52.535975,0.16549 -3.43065,0.12427 -7.070486,-0.75089 -9.791932,-3.0109 -4.048264,-3.31439 -5.816216,-9.24768 -4.047422,-14.19706 5.547968,-11.80647 11.431679,-23.45141 17.159959,-35.1713 1.344993,-2.7875 2.792124,-5.53147 3.985673,-8.38782 0.677702,-1.57148 0.369772,-3.30387 0.472885,-4.96215 0.130444,-10.55621 0.03932,-21.114653 0.07676,-31.670415 0.0628,-2.203903 0.02369,-4.762168 -1.748862,-6.355717 -1.165419,-1.120144 -2.819508,-1.617143 -4.412109,-1.542969 -0.04358,-1.194632 -0.06394,-2.392113 0.0098,-3.585938 15.356777,-0.0053 30.713548,-0.01774 46.070313,-0.03711 0.03929,1.173152 0.165414,2.396084 0.04297,3.541016 -2.677792,0.007 -5.572455,1.740159 -6.056641,4.521484 -0.06334,6.557745 -0.06723,13.115875 -0.0957,19.673828 0.629733,0.258555 1.20306,0.382319 1.383981,-0.431613 1.450286,-2.5823 2.963297,-5.13882 4.374386,-7.737228 0.103454,-2.876679 0.01484,-5.778707 0.04437,-8.665143 0.149899,-0.467159 -0.367313,-1.601428 0.4,-1.451172 1.34621,-0.06573 2.939521,0.318572 3.992578,-0.771485 1.742477,-1.719722 1.888837,-4.339308 1.808587,-6.642578 0.056,-2.310141 0.0636,-4.88704 -1.509758,-6.757812 -0.707678,-0.931444 -1.908115,-1.201938 -3.019141,-1.082031 -16.576288,0.0013 -33.152689,-0.0026 -49.728906,0.002 z" />
    </g>
  </g>
  <g
     inkscape:label="Layer 2"
     inkscape:groupmode="layer"
     id="g22"
     transform="translate(-123.05451,-87.017057)"
     style="display:none">
    <g
       id="g25"
       inkscape:label="est"
       transform="matrix(-1.0296694,-0.23197534,0.26045772,-0.9170698,291.38854,361.61145)">
      <ellipse
         style="font-variation-settings:'wght' 700;display:inline;fill:none;fill-opacity:1;stroke:none;stroke-width:3.71885;stroke-linecap:round;stroke-linejoin:round"
         id="circle23"
         cx="-49.314117"
         cy="-243.25577"
         transform="matrix(0.50960038,-0.86041121,-0.79184661,-0.61072003,0,0)"
         rx="132.70926"
         ry="135.05882" />
      <text
         xml:space="preserve"
         style="font-style:normal;font-variant:normal;font-weight:normal;font-stretch:normal;font-size:40.4745px;font-family:Outfit;-inkscape-font-specification:'Outfit, @wght=700';font-variant-ligatures:normal;font-variant-caps:normal;font-variant-numeric:normal;font-variant-east-asian:normal;font-variation-settings:'wght' 700;text-align:start;letter-spacing:5.29167px;writing-mode:lr-tb;direction:ltr;text-anchor:start;fill:#000000;fill-opacity:1;stroke:none;stroke-width:2.64584;stroke-linecap:round;stroke-linejoin:round"
         id="text23"><textPath
           xlink:href="#circle23"
           id="textPath24"><tspan
             id="tspan23"
             style="font-style:normal;font-variant:normal;font-weight:normal;font-stretch:normal;font-size:40.4745px;font-family:Outfit;-inkscape-font-specification:'Outfit, @wght=700';font-variant-ligatures:normal;font-variant-caps:normal;font-variant-numeric:normal;font-variant-east-asian:normal;font-variation-settings:'wght' 700;fill:#000000;fill-opacity:1;stroke:none;stroke-width:2.64584">EST. 2026</tspan></textPath></text>
    </g>
    <circle
       style="font-variation-settings:'wght' 700;display:inline;fill:none;fill-opacity:0.311321;stroke:none;stroke-width:2.64583;stroke-linecap:round;stroke-linejoin:round;stroke-opacity:1"
       id="path22"
       cx="-221.90143"
       cy="-48.484619"
       r="95.250107"
       transform="rotate(-149.53471)" />
    <text
       xml:space="preserve"
       style="font-style:normal;font-variant:normal;font-weight:normal;font-stretch:normal;font-size:40.5695px;font-family:Outfit;-inkscape-font-specification:'Outfit, @wght=700';font-variant-ligatures:normal;font-variant-caps:normal;font-variant-numeric:normal;font-variant-east-asian:normal;font-variation-settings:'wght' 700;text-align:start;letter-spacing:-2.70765px;writing-mode:lr-tb;direction:ltr;text-anchor:start;display:inline;fill:#000000;fill-opacity:1;stroke:none;stroke-width:7.76355;stroke-linejoin:round;stroke-opacity:1"
       id="text17"
       inkscape:label="text17"><textPath
         xlink:href="#path22"
         id="textPath23"><tspan
           id="tspan17"
           style="font-style:normal;font-variant:normal;font-weight:normal;font-stretch:normal;font-size:40.5695px;font-family:Outfit;-inkscape-font-specification:'Outfit, @wght=700';font-variant-ligatures:normal;font-variant-caps:normal;font-variant-numeric:normal;font-variant-east-asian:normal;font-variation-settings:'wght' 700;letter-spacing:-2.70765px;fill:#000000;fill-opacity:1;stroke:none;stroke-width:7.76352">MODE  LAB</tspan></textPath></text>
    <g
       id="g17"
       inkscape:label="Flask"
       transform="translate(96.624852,26.840258)"
       style="display:inline;fill:#000000">
      <path
         id="path10"
         style="display:inline;fill:#000000;fill-opacity:1;stroke:none;stroke-width:0;stroke-linejoin:round;stroke-dasharray:none;stroke-opacity:1"
         d="m 36.708984,150.23633 c -0.552734,1.19466 -1.105468,2.38932 -1.658203,3.58398 0.06356,0.67347 0.599523,0.9144 1.172069,1.10218 7.997996,3.18608 16.696821,4.48421 25.282901,4.18781 5.034347,-0.17452 10.023341,-1.14024 15.018824,-1.54721 8.768231,-0.84957 17.589359,-1.26616 26.403155,-0.76621 2.67361,0.17583 5.52277,0.4107 8.1211,0.90429 0.54133,-0.4782 0.64956,-0.99431 0.16324,-1.56244 -0.64584,-1.19851 -1.18736,-2.48972 -1.8969,-3.63161 -0.66036,-0.47787 -1.57208,-0.22809 -2.34226,-0.38804 -6.9461,-0.57368 -13.943339,-0.68908 -20.884774,0.0158 -7.713475,0.71543 -15.375331,1.72855 -23.105714,2.24203 -3.888162,0.18871 -7.85983,0.15083 -11.746423,-0.2987 -4.158954,-0.48807 -8.410853,-1.37232 -12.264436,-3.21958 -0.551559,-0.213 -1.06088,-0.67301 -1.592976,-0.81707 -0.223201,0.0649 -0.446402,0.12982 -0.669603,0.19473 z" />
      <path
         id="path11"
         style="display:inline;fill:#000000;fill-opacity:1;stroke:none;stroke-width:8.485;stroke-linejoin:round;stroke-dasharray:none;stroke-opacity:1"
         d="m 96.849609,65.472656 c -11.144098,0.05056 -22.29252,0.008 -33.438281,0.02278 -5.652676,0.01852 -11.309393,-0.03616 -16.959544,0.02812 -2.130855,0.280799 -3.28996,2.480087 -3.645603,4.397905 -0.361087,2.133671 -0.193524,4.313126 -0.148049,6.462758 0.189943,2.089699 1.088003,4.500688 3.222727,5.268117 0.951616,0.264658 1.945391,0.144249 2.917969,0.138672 0,11.971354 0,23.942702 0,35.914062 -6.986311,14.21321 -14.022069,28.40369 -20.961211,42.63873 -2.792942,6.73758 -1.352065,15.00705 3.617195,20.36085 3.865704,4.30721 9.728423,6.6468 15.492844,6.34812 17.481927,-0.0125 34.96481,0.0349 52.446131,-0.0344 7.132263,-0.32872 13.848453,-4.98904 16.651383,-11.55755 2.39845,-5.43149 2.1475,-11.97903 -0.8113,-17.14797 -6.64501,-13.53461 -13.29003,-27.06923 -19.935042,-40.60384 0.0091,-11.97005 -0.01823,-23.976558 0.01367,-35.923822 1.502105,0.07295 3.303132,0.224678 4.370046,-1.073954 1.761456,-1.841403 1.889196,-4.55111 1.824196,-6.955297 0.0648,-2.505354 -0.0313,-5.337069 -1.87393,-7.257858 -0.729355,-0.718781 -1.767517,-1.072906 -2.783203,-1.025391 z m -2.271484,7.023438 c -5.31e-4,0.772915 0.13861,1.645085 0.01367,2.363281 -2.772954,0.200358 -5.615828,2.139052 -6.058594,5.017578 -0.207485,12.167197 -0.08708,24.337487 -0.100682,36.505127 0.02733,1.82952 0.24767,3.72478 1.238047,5.30794 6.305186,13.02726 12.673654,26.02478 19.116534,38.9839 1.9494,3.39307 2.74383,7.86717 1.13105,11.62134 -1.72746,4.2199 -5.87964,7.55374 -10.507585,7.76153 -17.796229,0.20668 -35.594727,0.0536 -53.391036,0.16001 -3.168419,-0.0969 -6.688818,-1.24603 -9.023798,-3.66139 -3.319711,-3.32812 -4.67511,-8.66667 -2.916115,-13.08433 6.5257,-13.86298 13.502717,-27.51648 20.155233,-41.331 0.695063,-1.48344 1.436299,-3.01824 1.353971,-4.70297 0.141192,-11.97134 0.07615,-23.946021 0.09519,-35.917821 -0.0355,-2.074275 -0.77858,-4.287431 -2.59107,-5.465368 -1.042957,-0.731594 -2.316561,-1.097417 -3.583171,-1.133999 -0.02456,-0.842077 -0.03661,-1.685617 0.0039,-2.527344 15.01888,-0.01237 30.03776,-0.02474 45.05664,-0.03711 l 0.0055,0.09985 z" />
      <path
         id="path12"
         style="display:none;fill:#000000;fill-opacity:1;stroke:none;stroke-width:8.485;stroke-linejoin:round;stroke-dasharray:none;stroke-opacity:1"
         d="m 46.712891,66.025391 c -1.897414,0.101486 -2.942724,2.056555 -3.330079,3.703125 -0.44259,2.035445 -0.199659,4.137713 -0.238281,6.203125 0.137629,1.940102 0.772506,4.215965 2.65522,5.138313 1.123199,0.408872 2.357965,0.121129 3.528374,0.20739 0,12.183594 0,24.367186 0,36.550776 -6.971199,14.17731 -13.973462,28.34062 -20.925324,42.52664 -2.626234,6.19118 -1.622208,13.75653 2.609284,18.9993 3.600602,4.63759 9.466888,7.34961 15.327759,7.16938 17.544388,-0.0115 35.089348,0.0231 52.633379,-0.0173 6.448257,-0.17004 12.637967,-3.94516 15.751667,-9.59266 3.09879,-5.4402 3.26848,-12.49454 0.21825,-17.99213 -2.87856,-5.86453 -5.75771,-11.72878 -8.6365,-17.59321 -0.69192,-0.5622 -1.65204,-0.18991 -2.47461,-0.29687 -1.17773,0 -2.35547,0 -3.5332,0 -0.540635,0.52773 -0.450318,1.08583 -0.0308,1.65979 2.939,5.89854 5.97944,11.74764 8.93152,17.63831 1.82593,3.17068 2.7195,7.1638 1.67872,10.79802 -1.37043,4.94449 -5.88969,8.97729 -11.041161,9.45469 -17.511171,0.2219 -35.024786,0.0439 -52.535975,0.16549 -3.43065,0.12427 -7.070486,-0.75089 -9.791932,-3.0109 -4.048264,-3.31439 -5.816216,-9.24768 -4.047422,-14.19706 5.547968,-11.80647 11.431679,-23.45141 17.159959,-35.1713 1.344993,-2.7875 2.792124,-5.53147 3.985673,-8.38782 0.677702,-1.57148 0.369772,-3.30387 0.472885,-4.96215 0.130444,-10.55621 0.03932,-21.114653 0.07676,-31.670415 0.0628,-2.203903 0.02369,-4.762168 -1.748862,-6.355717 -1.165419,-1.120144 -2.819508,-1.617143 -4.412109,-1.542969 -0.04358,-1.194632 -0.06394,-2.392113 0.0098,-3.585938 15.356777,-0.0053 30.713548,-0.01774 46.070313,-0.03711 0.03929,1.173152 0.165414,2.396084 0.04297,3.541016 -2.677792,0.007 -5.572455,1.740159 -6.056641,4.521484 -0.06334,6.557745 -0.06723,13.115875 -0.0957,19.673828 0.629733,0.258555 1.20306,0.382319 1.383981,-0.431613 1.450286,-2.5823 2.963297,-5.13882 4.374386,-7.737228 0.103454,-2.876679 0.01484,-5.778707 0.04437,-8.665143 0.149899,-0.467159 -0.367313,-1.601428 0.4,-1.451172 1.34621,-0.06573 2.939521,0.318572 3.992578,-0.771485 1.742477,-1.719722 1.888837,-4.339308 1.808587,-6.642578 0.056,-2.310141 0.0636,-4.88704 -1.509758,-6.757812 -0.707678,-0.931444 -1.908115,-1.201938 -3.019141,-1.082031 -16.576288,0.0013 -33.152689,-0.0026 -49.728906,0.002 z" />
    </g>
    <circle
       style="fill:none;fill-opacity:0.311321;stroke:none;stroke-width:2.75383;stroke-linecap:round;stroke-linejoin:round;stroke-opacity:1"
       id="path25"
       cy="153.11362"
       cx="168.67366"
       r="134.93765" />
    <path
       id="circle25"
       style="fill:#000000;fill-opacity:1;stroke:none;stroke-width:1.86288;stroke-linecap:round;stroke-linejoin:round;stroke-opacity:1"
       d="m 168.67366,61.832262 a 91.281357,91.281357 0 0 0 -91.281358,91.281358 91.281357,91.281357 0 0 0 91.281358,91.28135 91.281357,91.281357 0 0 0 91.28136,-91.28135 91.281357,91.281357 0 0 0 -91.28136,-91.281358 z m 0,5.291674 A 85.989685,85.989685 0 0 1 254.66334,153.11362 85.989685,85.989685 0 0 1 168.67366,239.1033 85.989685,85.989685 0 0 1 82.683975,153.11362 85.989685,85.989685 0 0 1 168.67366,67.123936 Z" />
    <path
       id="path27"
       style="fill:#000000;fill-opacity:1;stroke:none;stroke-width:2.93355;stroke-linecap:round;stroke-linejoin:round;stroke-opacity:1"
       d="M 168.67365,9.3693765 A 143.74425,143.74425 0 0 0 24.929411,153.11363 143.74425,143.74425 0 0 0 168.67365,296.85786 143.74425,143.74425 0 0 0 312.41791,153.11363 143.74425,143.74425 0 0 0 168.67365,9.3693765 Z m 0,8.3330015 A 135.41125,135.41125 0 0 1 304.08489,153.11363 135.41125,135.41125 0 0 1 168.67365,288.52486 135.41125,135.41125 0 0 1 33.26241,153.11363 135.41125,135.41125 0 0 1 168.67365,17.702378 Z" />
  </g>
</svg>
