<?xml version="1.0" encoding="UTF-8"?>
<svg xmlns="http://www.w3.org/2000/svg" xmlns:ns1="http://sodipodi.sourceforge.net/DTD/sodipodi-0.dtd" xmlns:ns2="http://www.inkscape.org/namespaces/inkscape" viewBox="-4.00 -4.00 99.00 129.33" version="1.1" id="svg1">
  <ns1:namedview id="namedview1" pagecolor="#ffffff" bordercolor="#000000" borderopacity="0.25" showguides="true" showgrid="true">
    <ns2:grid id="grid70" units="px" originx="-119.74515" originy="-99.268215" spacingx="0.26458321" spacingy="0.26458364" empcolor="#0099e5" empopacity="0.30196078" color="#0099e5" opacity="0.14901961" empspacing="5" enabled="true" visible="true" />
    <ns2:page x="0" y="0" width="91.238716" height="121.6098" id="page2" margin="0" bleed="0" />
  </ns1:namedview>
  <defs id="defs1" />
  <g id="g38" transform="translate(-153.50167,-117.30594)" style="display:inline">
    <g id="g17-8" transform="translate(127.07202,51.837474)" style="display:inline;fill:#000000">
      <path id="path10-8" style="display:inline;fill:#000000;fill-opacity:1;stroke:none;stroke-width:0;stroke-linejoin:round;stroke-dasharray:none;stroke-opacity:1" d="m 36.708984,150.23633 c -0.552734,1.19466 -1.105468,2.38932 -1.658203,3.58398 0.06356,0.67347 0.599523,0.9144 1.172069,1.10218 7.997996,3.18608 16.696821,4.48421 25.282901,4.18781 5.034347,-0.17452 10.023341,-1.14024 15.018824,-1.54721 8.768231,-0.84957 17.589359,-1.26616 26.403155,-0.76621 2.67361,0.17583 5.52277,0.4107 8.1211,0.90429 0.54133,-0.4782 0.64956,-0.99431 0.16324,-1.56244 -0.64584,-1.19851 -1.18736,-2.48972 -1.8969,-3.63161 -0.66036,-0.47787 -1.57208,-0.22809 -2.34226,-0.38804 -6.9461,-0.57368 -13.943339,-0.68908 -20.884774,0.0158 -7.713475,0.71543 -15.375331,1.72855 -23.105714,2.24203 -3.888162,0.18871 -7.85983,0.15083 -11.746423,-0.2987 -4.158954,-0.48807 -8.410853,-1.37232 -12.264436,-3.21958 -0.551559,-0.213 -1.06088,-0.67301 -1.592976,-0.81707 -0.223201,0.0649 -0.446402,0.12982 -0.669603,0.19473 z" />
      <path id="path11-2" style="display:inline;fill:#000000;fill-opacity:1;stroke:none;stroke-width:8.485;stroke-linejoin:round;stroke-dasharray:none;stroke-opacity:1" d="m 96.849609,65.472656 c -11.144098,0.05056 -22.29252,0.008 -33.438281,0.02278 -5.652676,0.01852 -11.309393,-0.03616 -16.959544,0.02812 -2.130855,0.280799 -3.28996,2.480087 -3.645603,4.397905 -0.361087,2.133671 -0.193524,4.313126 -0.148049,6.462758 0.189943,2.089699 1.088003,4.500688 3.222727,5.268117 0.951616,0.264658 1.945391,0.144249 2.917969,0.138672 0,11.971354 0,23.942702 0,35.914062 -6.986311,14.21321 -14.022069,28.40369 -20.961211,42.63873 -2.792942,6.73758 -1.352065,15.00705 3.617195,20.36085 3.865704,4.30721 9.728423,6.6468 15.492844,6.34812 17.481927,-0.0125 34.96481,0.0349 52.446131,-0.0344 7.132263,-0.32872 13.848453,-4.98904 16.651383,-11.55755 2.39845,-5.43149 2.1475,-11.97903 -0.8113,-17.14797 -6.64501,-13.53461 -13.29003,-27.06923 -19.935042,-40.60384 0.0091,-11.97005 -0.01823,-23.976558 0.01367,-35.923822 1.502105,0.07295 3.303132,0.224678 4.370046,-1.073954 1.761456,-1.841403 1.889196,-4.55111 1.824196,-6.955297 0.0648,-2.505354 -0.0313,-5.337069 -1.87393,-7.257858 -0.729355,-0.718781 -1.767517,-1.072906 -2.783203,-1.025391 z m -2.271484,7.023438 c -5.31e-4,0.772915 0.13861,1.645085 0.01367,2.363281 -2.772954,0.200358 -5.615828,2.139052 -6.058594,5.017578 -0.207485,12.167197 -0.08708,24.337487 -0.100682,36.505127 0.02733,1.82952 0.24767,3.72478 1.238047,5.30794 6.305186,13.02726 12.673654,26.02478 19.116534,38.9839 1.9494,3.39307 2.74383,7.86717 1.13105,11.62134 -1.72746,4.2199 -5.87964,7.55374 -10.507585,7.76153 -17.796229,0.20668 -35.594727,0.0536 -53.391036,0.16001 -3.168419,-0.0969 -6.688818,-1.24603 -9.023798,-3.66139 -3.319711,-3.32812 -4.67511,-8.66667 -2.916115,-13.08433 6.5257,-13.86298 13.502717,-27.51648 20.155233,-41.331 0.695063,-1.48344 1.436299,-3.01824 1.353971,-4.70297 0.141192,-11.97134 0.07615,-23.946021 0.09519,-35.917821 -0.0355,-2.074275 -0.77858,-4.287431 -2.59107,-5.465368 -1.042957,-0.731594 -2.316561,-1.097417 -3.583171,-1.133999 -0.02456,-0.842077 -0.03661,-1.685617 0.0039,-2.527344 15.01888,-0.01237 30.03776,-0.02474 45.05664,-0.03711 l 0.0055,0.09985 z" />
      </g>
  </g>
  </svg>