<?xml version="1.0" encoding="UTF-8"?>
<svg xmlns="http://www.w3.org/2000/svg" viewBox="-2.00 -2.00 215.50 124.50" version="1.1" id="svg1">
  <defs id="defs1" />
  <g id="g38" transform="translate(-40.056055,-29.584057)" style="display:inline">
    <g id="g61" transform="translate(13.097559,-36.412688)" style="display:inline;fill:#000000">
      <g id="g23" style="display:inline">
        <path id="path13" style="fill:#ffffff;fill-opacity:1;stroke:none;stroke-width:0;stroke-linejoin:round;stroke-dasharray:none;stroke-opacity:1" d="m 36.708984,150.23633 c -0.552734,1.19466 -1.105468,2.38932 -1.658203,3.58398 0.06356,0.67347 0.599523,0.9144 1.172069,1.10218 7.997996,3.18608 16.696821,4.48421 25.282901,4.18781 5.034347,-0.17452 10.023341,-1.14024 15.018824,-1.54721 8.768231,-0.84957 17.589359,-1.26616 26.403155,-0.76621 2.67361,0.17583 5.52277,0.4107 8.1211,0.90429 0.54133,-0.4782 0.64956,-0.99431 0.16324,-1.56244 -0.64584,-1.19851 -1.18736,-2.48972 -1.8969,-3.63161 -0.66036,-0.47787 -1.57208,-0.22809 -2.34226,-0.38804 -6.9461,-0.57368 -13.943339,-0.68908 -20.884774,0.0158 -7.713475,0.71543 -15.375331,1.72855 -23.105714,2.24203 -3.888162,0.18871 -7.85983,0.15083 -11.746423,-0.2987 -4.158954,-0.48807 -8.410853,-1.37232 -12.264436,-3.21958 -0.551559,-0.213 -1.06088,-0.67301 -1.592976,-0.81707 -0.223201,0.0649 -0.446402,0.12982 -0.669603,0.19473 z" />
        <path id="path15" style="display:inline;fill:#ffffff;fill-opacity:1;stroke:none;stroke-width:8.485;stroke-linejoin:round;stroke-dasharray:none;stroke-opacity:1" d="m 46.712891,66.025391 c -1.897414,0.101486 -2.942724,2.056555 -3.330079,3.703125 -0.44259,2.035445 -0.199659,4.137713 -0.238281,6.203125 0.137629,1.940102 0.772506,4.215965 2.65522,5.138313 1.123199,0.408872 2.357965,0.121129 3.528374,0.20739 0,12.183594 0,24.367186 0,36.550776 -6.971199,14.17731 -13.973462,28.34062 -20.925324,42.52664 -2.626234,6.19118 -1.622208,13.75653 2.609284,18.9993 3.600602,4.63759 9.466888,7.34961 15.327759,7.16938 17.544388,-0.0115 35.089348,0.0231 52.633379,-0.0173 6.448257,-0.17004 12.637967,-3.94516 15.751667,-9.59266 3.09879,-5.4402 3.26848,-12.49454 0.21825,-17.99213 -2.87856,-5.86453 -5.75771,-11.72878 -8.6365,-17.59321 -0.69192,-0.5622 -1.65204,-0.18991 -2.47461,-0.29687 -1.17773,0 -2.35547,0 -3.5332,0 -0.540635,0.52773 -0.450318,1.08583 -0.0308,1.65979 2.939,5.89854 5.97944,11.74764 8.93152,17.63831 1.82593,3.17068 2.7195,7.1638 1.67872,10.79802 -1.37043,4.94449 -5.88969,8.97729 -11.041161,9.45469 -17.511171,0.2219 -35.024786,0.0439 -52.535975,0.16549 -3.43065,0.12427 -7.070486,-0.75089 -9.791932,-3.0109 -4.048264,-3.31439 -5.816216,-9.24768 -4.047422,-14.19706 5.547968,-11.80647 11.431679,-23.45141 17.159959,-35.1713 1.344993,-2.7875 2.792124,-5.53147 3.985673,-8.38782 0.677702,-1.57148 0.369772,-3.30387 0.472885,-4.96215 0.130444,-10.55621 0.03932,-21.114653 0.07676,-31.670415 0.0628,-2.203903 0.02369,-4.762168 -1.748862,-6.355717 -1.165419,-1.120144 -2.819508,-1.617143 -4.412109,-1.542969 -0.04358,-1.194632 -0.06394,-2.392113 0.0098,-3.585938 15.356777,-0.0053 30.713548,-0.01774 46.070313,-0.03711 0.03929,1.173152 0.165414,2.396084 0.04297,3.541016 -2.677792,0.007 -5.572455,1.740159 -6.056641,4.521484 -0.06334,6.557745 -0.06723,13.115875 -0.0957,19.673828 0.629733,0.258555 1.20306,0.382319 1.383981,-0.431613 1.450286,-2.5823 2.963297,-5.13882 4.374386,-7.737228 0.103454,-2.876679 0.01484,-5.778707 0.04437,-8.665143 0.149899,-0.467159 -0.367313,-1.601428 0.4,-1.451172 1.34621,-0.06573 2.939521,0.318572 3.992578,-0.771485 1.742477,-1.719722 1.888837,-4.339308 1.808587,-6.642578 0.056,-2.310141 0.0636,-4.88704 -1.509758,-6.757812 -0.707678,-0.931444 -1.908115,-1.201938 -3.019141,-1.082031 -16.576288,0.0013 -33.152689,-0.0026 -49.728906,0.002 z" />
      </g>
    </g>
    <g id="g37" transform="matrix(1.0961732,0,0,1.0961732,-35.915036,-47.783297)" style="display:inline;fill:#000000">
      <g id="g35" style="display:inline;fill:#000000" transform="matrix(0.83998309,0,0,0.83998309,31.68855,28.104887)">
        <text xml:space="preserve" style="font-style:normal;font-variant:normal;font-weight:normal;font-stretch:normal;font-size:67.0487px;font-family:Outfit;-inkscape-font-specification:'Outfit, @wght=700';font-variant-ligatures:normal;font-variant-caps:normal;font-variant-numeric:normal;font-variant-east-asian:normal;font-variation-settings:'wght' 700;text-align:start;letter-spacing:-2.94065px;writing-mode:lr-tb;direction:ltr;text-anchor:start;display:inline;fill:#ffffff;fill-opacity:1;stroke:none;stroke-width:7.76355;stroke-linejoin:round;stroke-opacity:1" x="85.485725" y="121.36459" id="text24" transform="scale(0.94804055,1.0548072)"><tspan id="tspan24" style="font-style:normal;font-variant:normal;font-weight:normal;font-stretch:normal;font-size:67.0487px;font-family:Outfit;-inkscape-font-specification:'Outfit, @wght=600';font-variant-ligatures:normal;font-variant-caps:normal;font-variant-numeric:normal;font-variant-east-asian:normal;font-variation-settings:'wght' 600;letter-spacing:-2.94065px;fill:#ffffff;fill-opacity:1;stroke:none;stroke-width:7.76352" x="85.485725" y="121.36459">MODE</tspan></text>
      </g>
      <g id="g36" style="display:inline;fill:#000000" transform="matrix(1.1270265,0,0,1.0309553,4.1144055,-0.96600421)">
        <text xml:space="preserve" style="font-style:normal;font-variant:normal;font-weight:bold;font-stretch:normal;font-size:36.3764px;font-family:Outfit;-inkscape-font-specification:'Outfit, Bold';font-variant-ligatures:normal;font-variant-caps:normal;font-variant-numeric:normal;font-variant-east-asian:normal;text-align:start;letter-spacing:0px;writing-mode:lr-tb;direction:ltr;text-anchor:start;display:inline;fill:#ffffff;fill-opacity:1;stroke:none;stroke-width:4.22064;stroke-linejoin:round;stroke-opacity:1" x="168.52483" y="153.19713" id="text2" transform="scale(0.95191624,1.0505126)"><tspan id="tspan2" style="font-style:normal;font-variant:normal;font-weight:bold;font-stretch:normal;font-size:36.3764px;font-family:Outfit;-inkscape-font-specification:'Outfit, Bold';font-variant-ligatures:normal;font-variant-caps:normal;font-variant-numeric:normal;font-variant-east-asian:normal;letter-spacing:0px;fill:#ffffff;fill-opacity:1;stroke:none;stroke-width:4.22063" x="168.52483" y="153.19713">Lab</tspan></text>
      </g>
    </g>
  </g>
  </svg>